<?xml version="1.0" standalone="no"?><!DOCTYPE svg PUBLIC "-//W3C//DTD SVG 1.1//EN" "http://www.w3.org/Graphics/SVG/1.1/DTD/svg11.dtd"><svg t="1512457848607" class="icon" style="" viewBox="0 0 1024 1024" version="1.1" xmlns="http://www.w3.org/2000/svg" p-id="2780" xmlns:xlink="http://www.w3.org/1999/xlink" width="200" height="200"><defs><style type="text/css">html, * { user-select: text !important; }
</style></defs><path d="M312.7327 912.3041h325.89824V93.264896H312.73267200000004V912.304128zM590.5234 797.3202h-87.089152v-89.090048h87.089152V797.3201919999999zM428.4723 663.9053v-89.14944h87.0656v89.14944H428.47232zM590.5234 530.432h-87.089152v-89.09312h87.089152V530.432zM428.4723 397.015v-89.148416h87.0656v89.148416H428.47232zM503.4342 174.4353h87.089152v89.11872h-87.089152V174.435328zM353.4981 174.4353h87.06252800000001v89.11872H353.49811200000005V174.435328zM353.4981 441.3389h87.06252800000001v89.09312H353.49811200000005V441.33888zM353.4981 708.2301h87.06252800000001V797.3201919999999H353.49811200000005V708.230144zM71.4967 912.3041h195.380224v-560.0563199999999H71.496704V912.304128zM125.6612 396.1856h87.05024v89.09209600000001h-87.05024V396.18559999999997zM125.6612 554.6107h87.05024v89.09312h-87.05024V554.610688zM125.6612 706.8488h87.05024v89.09209600000001h-87.05024V706.848768zM909.3315 431.1276V324.70323199999996h-47.38969600000001V220.83072h-34.057216000000004v-96.598016h-28.595200000000002v96.598016h-34.00192V324.70323199999996h-47.41632v106.42432000000001h-38.585344v481.176576h268.655616V431.12755200000004H909.331456zM810.8288 851.0863h-87.077888v-89.09312h87.077888V851.0863360000001zM810.8288 577.9046h-87.077888v-89.094144h87.077888V577.90464zM913.0025 713.3645H825.951232v-89.09209600000001h87.051264V713.36448z" p-id="2781" fill="#dbdbdb"></path></svg>